<svg width="32" height="32" viewBox="0 0 32 32" fill="none" xmlns="http://www.w3.org/2000/svg">
<path d="M22.6676 9.33332L16.9476 3.61332C16.1076 2.77332 14.6676 3.35999 14.6676 4.54665V12.7867L9.48094 7.59999C8.96094 7.07999 8.12094 7.07999 7.60094 7.59999C7.08094 8.11999 7.08094 8.95999 7.60094 9.47999L14.1209 16L7.60094 22.52C7.08094 23.04 7.08094 23.88 7.60094 24.4C8.12094 24.92 8.96094 24.92 9.48094 24.4L14.6676 19.2133V27.4533C14.6676 28.64 16.1076 29.24 16.9476 28.4L22.6676 22.6667C23.1876 22.1467 23.1876 21.3067 22.6676 20.7867L17.8809 16L22.6676 11.2267C23.1876 10.7067 23.1876 9.85332 22.6676 9.33332ZM17.3343 7.77332L19.8409 10.28L17.3343 12.7867V7.77332ZM19.8409 21.72L17.3343 24.2267V19.2133L19.8409 21.72Z" fill="#FFBB00"/>
</svg>
