<svg width="18" height="24" viewBox="0 0 18 24" fill="none" xmlns="http://www.w3.org/2000/svg">
<path d="M9.00065 0.333008C4.48565 0.333008 0.833984 3.98467 0.833984 8.49967C0.833984 13.3647 5.99065 20.073 8.11399 22.628C8.58065 23.188 9.43232 23.188 9.89899 22.628C12.0107 20.073 17.1673 13.3647 17.1673 8.49967C17.1673 3.98467 13.5157 0.333008 9.00065 0.333008ZM9.00065 11.4163C7.39065 11.4163 6.08399 10.1097 6.08399 8.49967C6.08399 6.88968 7.39065 5.58301 9.00065 5.58301C10.6107 5.58301 11.9173 6.88968 11.9173 8.49967C11.9173 10.1097 10.6107 11.4163 9.00065 11.4163Z" fill="#FFBB00"/>
</svg>
