<svg width="24" height="24" viewBox="0 0 24 24" fill="none" xmlns="http://www.w3.org/2000/svg">
<path d="M11.9987 9.10634C11.4265 9.10634 10.8671 9.27603 10.3912 9.59396C9.91544 9.91188 9.5446 10.3638 9.32561 10.8924C9.10662 11.4211 9.04932 12.0029 9.16096 12.5641C9.2726 13.1254 9.54816 13.6409 9.9528 14.0456C10.3574 14.4502 10.873 14.7258 11.4342 14.8374C11.9955 14.9491 12.5772 14.8918 13.1059 14.6728C13.6346 14.4538 14.0865 14.0829 14.4044 13.6071C14.7223 13.1313 14.892 12.5719 14.892 11.9997C14.892 11.6197 14.8172 11.2435 14.6718 10.8924C14.5264 10.5414 14.3133 10.2225 14.0446 9.95378C13.7759 9.68511 13.457 9.47199 13.1059 9.32658C12.7549 9.18118 12.3787 9.10634 11.9987 9.10634ZM23.5837 6.24801C23.5776 5.34706 23.4117 4.45434 23.0937 3.61134C22.8595 2.99448 22.4972 2.43428 22.0306 1.96772C21.5641 1.50116 21.0039 1.13885 20.387 0.904675C19.544 0.586716 18.6513 0.420812 17.7504 0.414674C16.2454 0.333008 15.802 0.333008 11.9987 0.333008C8.19536 0.333008 7.75203 0.333008 6.24703 0.414674C5.34608 0.420812 4.45336 0.586716 3.61036 0.904675C2.9935 1.13885 2.43331 1.50116 1.96675 1.96772C1.50019 2.43428 1.13787 2.99448 0.903698 3.61134C0.585739 4.45434 0.419836 5.34706 0.413698 6.24801C0.332031 7.75301 0.332031 8.19634 0.332031 11.9997C0.332031 15.803 0.332031 16.2463 0.413698 17.7513C0.426256 18.6555 0.591935 19.5509 0.903698 20.3997C1.13683 21.0137 1.49885 21.5707 1.96536 22.033C2.42992 22.5024 2.99132 22.8647 3.61036 23.0947C4.45336 23.4126 5.34608 23.5785 6.24703 23.5847C7.75203 23.6663 8.19536 23.6663 11.9987 23.6663C15.802 23.6663 16.2454 23.6663 17.7504 23.5847C18.6513 23.5785 19.544 23.4126 20.387 23.0947C21.0061 22.8647 21.5675 22.5024 22.032 22.033C22.4986 21.5707 22.8606 21.0137 23.0937 20.3997C23.4114 19.5525 23.5772 18.6561 23.5837 17.7513C23.6654 16.2463 23.6654 15.803 23.6654 11.9997C23.6654 8.19634 23.6654 7.75301 23.5837 6.24801ZM20.6204 15.5813C20.5829 16.3013 20.4293 17.0105 20.1654 17.6813C19.9389 18.241 19.6022 18.7494 19.1753 19.1763C18.7484 19.6032 18.24 19.9399 17.6804 20.1663C17.0031 20.4155 16.29 20.5534 15.5687 20.5747C14.647 20.5747 14.402 20.5747 11.9987 20.5747C9.59537 20.5747 9.35036 20.5747 8.4287 20.5747C7.70738 20.5534 6.99427 20.4155 6.31703 20.1663C5.73849 19.9513 5.21602 19.6084 4.7887 19.163C4.36598 18.7445 4.03952 18.2389 3.83203 17.6813C3.58185 17.0048 3.44774 16.2909 3.43536 15.5697C3.43536 14.648 3.43536 14.403 3.43536 11.9997C3.43536 9.59634 3.43536 9.35134 3.43536 8.42967C3.44774 7.70847 3.58185 6.99454 3.83203 6.31801C4.04703 5.73946 4.39002 5.217 4.83536 4.78967C5.25575 4.36924 5.76084 4.04312 6.31703 3.83301C6.99427 3.58381 7.70738 3.44592 8.4287 3.42467C9.35036 3.42467 9.59537 3.42467 11.9987 3.42467C14.402 3.42467 14.647 3.42467 15.5687 3.42467C16.29 3.44592 17.0031 3.58381 17.6804 3.83301C18.2589 4.048 18.7814 4.391 19.2087 4.83634C19.6314 5.25488 19.9579 5.7605 20.1654 6.31801C20.4146 6.99524 20.5525 7.70836 20.5737 8.42967C20.5737 9.35134 20.5737 9.59634 20.5737 11.9997C20.5737 14.403 20.6554 14.648 20.6204 15.5697V15.5813ZM18.7537 6.90134C18.6148 6.52449 18.3958 6.18226 18.1118 5.89826C17.8278 5.61426 17.4855 5.39525 17.1087 5.25634C16.5912 5.07698 16.0463 4.9901 15.4987 4.99967C14.5887 4.99967 14.332 4.99967 11.9987 4.99967C9.66537 4.99967 9.4087 4.99967 8.4987 4.99967C7.94834 5.00505 7.40328 5.10775 6.8887 5.30301C6.51762 5.43561 6.17901 5.64567 5.89538 5.91924C5.61175 6.19281 5.3896 6.52362 5.2437 6.88967C5.07427 7.40927 4.9915 7.9532 4.9987 8.49967C4.9987 9.40967 4.9987 9.66634 4.9987 11.9997C4.9987 14.333 4.9987 14.5897 4.9987 15.4997C5.01026 16.0494 5.11276 16.5934 5.30203 17.1097C5.44094 17.4865 5.65995 17.8288 5.94395 18.1128C6.22795 18.3968 6.57018 18.6158 6.94703 18.7547C7.44481 18.9377 7.96863 19.0401 8.4987 19.058C9.4087 19.058 9.66537 19.058 11.9987 19.058C14.332 19.058 14.5887 19.058 15.4987 19.058C16.0491 19.0526 16.5941 18.9499 17.1087 18.7547C17.4855 18.6158 17.8278 18.3968 18.1118 18.1128C18.3958 17.8288 18.6148 17.4865 18.7537 17.1097C18.949 16.5951 19.0517 16.05 19.057 15.4997C19.057 14.5897 19.057 14.333 19.057 11.9997C19.057 9.66634 19.057 9.40967 19.057 8.49967C19.0574 7.94877 18.9545 7.40268 18.7537 6.88967V6.90134ZM11.9987 16.4563C11.414 16.4563 10.835 16.341 10.295 16.1169C9.75492 15.8928 9.26439 15.5643 8.85148 15.1503C8.43857 14.7363 8.11139 14.2449 7.8887 13.7043C7.66601 13.1636 7.55216 12.5844 7.5537 11.9997C7.5537 11.1177 7.81538 10.2556 8.3056 9.52248C8.79582 8.78933 9.49255 8.21812 10.3076 7.88115C11.1226 7.54418 12.0193 7.45661 12.8841 7.62951C13.7489 7.80242 14.543 8.22804 15.1658 8.85248C15.7886 9.47693 16.2122 10.2721 16.3828 11.1374C16.5535 12.0027 16.4635 12.8991 16.1244 13.7133C15.7853 14.5274 15.2123 15.2226 14.4779 15.7109C13.7434 16.1992 12.8806 16.4587 11.9987 16.4563ZM16.6654 8.41801C16.4075 8.39071 16.1688 8.26893 15.9953 8.07614C15.8219 7.88335 15.7259 7.63318 15.7259 7.37384C15.7259 7.1145 15.8219 6.86434 15.9953 6.67154C16.1688 6.47875 16.4075 6.35697 16.6654 6.32967C16.9233 6.35697 17.1619 6.47875 17.3354 6.67154C17.5089 6.86434 17.6048 7.1145 17.6048 7.37384C17.6048 7.63318 17.5089 7.88335 17.3354 8.07614C17.1619 8.26893 16.9233 8.39071 16.6654 8.41801Z" fill="white"/>
</svg>
