<svg width="32" height="32" viewBox="0 0 32 32" fill="none" xmlns="http://www.w3.org/2000/svg">
<path d="M13.332 17.3332C14.4906 18.8821 16.2649 19.8515 18.1942 19.9897C20.1236 20.1278 22.0179 19.4212 23.3854 18.0532L27.3854 14.0532C29.9118 11.4373 29.8757 7.27931 27.3042 4.70775C24.7326 2.13619 20.5746 2.10006 17.9587 4.62654L15.6654 6.90654" stroke="#FFBB00" stroke-width="3.2" stroke-linecap="round" stroke-linejoin="round"/>
<path d="M18.665 14.6657C17.5064 13.1168 15.7321 12.1474 13.8028 12.0092C11.8734 11.8711 9.97916 12.5777 8.61165 13.9457L4.61165 17.9457C2.08517 20.5615 2.1213 24.7196 4.69286 27.2911C7.26442 29.8627 11.4225 29.8988 14.0383 27.3724L16.3183 25.0924" stroke="#FFBB00" stroke-width="3.2" stroke-linecap="round" stroke-linejoin="round"/>
</svg>
