<svg width="32" height="32" viewBox="0 0 32 32" fill="none" xmlns="http://www.w3.org/2000/svg">
<path d="M15.9993 2.66675C10.8393 2.66675 6.66602 6.84008 6.66602 12.0001C6.66602 17.5601 12.5593 25.2267 14.986 28.1467C15.5193 28.7867 16.4927 28.7867 17.026 28.1467C19.4394 25.2267 25.3327 17.5601 25.3327 12.0001C25.3327 6.84008 21.1593 2.66675 15.9993 2.66675ZM15.9993 15.3334C14.1593 15.3334 12.666 13.8401 12.666 12.0001C12.666 10.1601 14.1593 8.66675 15.9993 8.66675C17.8393 8.66675 19.3327 10.1601 19.3327 12.0001C19.3327 13.8401 17.8393 15.3334 15.9993 15.3334Z" fill="#FFBB00"/>
</svg>
