<svg width="24" height="24" viewBox="0 0 24 24" fill="none" xmlns="http://www.w3.org/2000/svg">
<path d="M11.9948 0.333008C9.68735 0.333008 7.43172 1.01725 5.51314 2.2992C3.59457 3.58115 2.09922 5.40323 1.2162 7.53503C0.33318 9.66684 0.102141 12.0126 0.552302 14.2757C1.00246 16.5388 2.11361 18.6176 3.74522 20.2493C5.37683 21.8809 7.45563 22.992 9.71874 23.4422C11.9819 23.8923 14.3276 23.6613 16.4594 22.7783C18.5912 21.8952 20.4133 20.3999 21.6953 18.4813C22.9772 16.5628 23.6615 14.3071 23.6615 11.9997C23.6616 10.4676 23.3599 8.95041 22.7736 7.53488C22.1874 6.11936 21.328 4.83319 20.2447 3.74981C19.1613 2.66644 17.8751 1.80708 16.4596 1.22082C15.0441 0.634561 13.5269 0.332881 11.9948 0.333008ZM15.7042 18.0109C15.6606 18.1198 15.5941 18.2181 15.5094 18.2992C15.4246 18.3803 15.3235 18.4423 15.2128 18.4812C15.1021 18.52 14.9843 18.5347 14.8675 18.5243C14.7506 18.514 14.6373 18.4787 14.5352 18.421L11.3681 15.96L9.3354 17.8353C9.28824 17.8702 9.23306 17.8926 9.17496 17.9006C9.11686 17.9085 9.05769 17.9017 9.0029 17.8808L9.39257 14.3942L9.40504 14.4041L9.41301 14.3353C9.41301 14.3353 15.1122 9.14653 15.3443 8.92546C15.5794 8.70496 15.5018 8.65713 15.5018 8.65713C15.5152 8.38818 15.0801 8.65713 15.0801 8.65713L7.5288 13.5152L4.38406 12.4442C4.38406 12.4442 3.90106 12.2709 3.85556 11.89C3.80773 11.512 4.3998 11.3067 4.3998 11.3067L16.903 6.33958C16.903 6.33958 17.9308 5.88164 17.9308 6.64001L15.7042 18.0109Z" fill="white"/>
</svg>
