<svg width="13" height="12" viewBox="0 0 13 12" fill="none" xmlns="http://www.w3.org/2000/svg">
<path d="M12.0993 0.706503C11.7613 0.368503 11.2153 0.368503 10.8773 0.706503L6.63928 4.93584L2.40128 0.697836C2.06328 0.359836 1.51728 0.359836 1.17928 0.697836C0.841281 1.03584 0.841281 1.58184 1.17928 1.91984L5.41728 6.15784L1.17928 10.3958C0.841281 10.7338 0.841281 11.2798 1.17928 11.6178C1.51728 11.9558 2.06328 11.9558 2.40128 11.6178L6.63928 7.37983L10.8773 11.6178C11.2153 11.9558 11.7613 11.9558 12.0993 11.6178C12.4373 11.2798 12.4373 10.7338 12.0993 10.3958L7.86128 6.15784L12.0993 1.91984C12.4286 1.5905 12.4286 1.03584 12.0993 0.706503Z" fill="#0B0B0B"/>
</svg>
