<svg width="210" height="28" viewBox="0 0 210 28" fill="none" xmlns="http://www.w3.org/2000/svg">
<path d="M29.6198 12.9746V22.2718L26.8028 23.9744L20.1381 27.9997L13.4713 23.9744L10.6543 22.2718V12.9746L17.3211 17.0021L20.1381 18.7026L22.9551 17.0021L29.6198 12.9746Z" fill="#FFBB00"/>
<path d="M18.9655 5.72797V15.0251L12.3008 10.9998L9.48382 9.29716L6.66683 10.9998L0 15.0251V5.72797L2.817 4.02752L9.48382 0L16.1485 4.02752L18.9655 5.72797Z" fill="white"/>
<path d="M40.2741 5.72797V15.0251L33.6094 10.9998L30.7924 9.29716L27.9733 10.9998L21.3086 15.0251V5.72797L24.1256 4.02752L30.7924 0L37.4571 4.02752L40.2741 5.72797Z" fill="white"/>
<path d="M53 9.4548H57.7328V22H62.1139V9.4548H66.8512V6H53V9.4548Z" fill="white"/>
<path d="M78.4146 14.1128L73.9979 6H69.4609V22H73.8376V13.7191L76.7405 18.8637H80.0842L82.9871 13.7191V22H87.3682V6H82.8268L78.4146 14.1128Z" fill="white"/>
<path d="M100.774 6L97.2566 12.1576H95.4846V6H91.1035V22H95.4846V15.6168H97.2566L100.752 22H105.4L100.916 13.8872L105.427 6H100.774Z" fill="white"/>
<path d="M115.809 22H128.645V18.5452H120.19V15.6168H126.841V12.1576H120.19V9.4548H128.645V6H115.809V22Z" fill="white"/>
<path d="M135.862 6H131.48V22H144.089V18.5452H135.862V6Z" fill="white"/>
<path d="M159.633 7.35803C158.743 6.47332 157.385 6 155.653 6H146.699V22H155.653C157.385 22 158.725 21.5576 159.633 20.642C160.541 19.7263 161 18.4302 161 16.6873V11.3127C161 9.5875 160.537 8.25601 159.633 7.35803ZM156.619 16.6873C156.619 17.9348 156.009 18.5452 154.749 18.5452H151.08V9.4548H154.749C156.009 9.4548 156.619 10.0608 156.619 11.3127V16.6873Z" fill="white"/>
</svg>
