<svg width="26" height="20" viewBox="0 0 26 20" fill="none" xmlns="http://www.w3.org/2000/svg">
<path d="M25.8332 7.32807C25.8909 5.65817 25.5257 4.00076 24.7715 2.50974C24.2598 1.89794 23.5497 1.48507 22.7649 1.34307C19.5186 1.04852 16.259 0.927789 12.9999 0.981404C9.75262 0.925355 6.5047 1.04219 3.26987 1.3314C2.63033 1.44774 2.03847 1.74772 1.56654 2.19474C0.516535 3.16307 0.399869 4.81974 0.283202 6.21974C0.113933 8.7369 0.113933 11.2626 0.283202 13.7797C0.316954 14.5677 0.434278 15.3499 0.633202 16.1131C0.773873 16.7023 1.05848 17.2475 1.46154 17.6997C1.93668 18.1704 2.54232 18.4875 3.19987 18.6097C5.7151 18.9202 8.24946 19.0489 10.7832 18.9947C14.8665 19.0531 18.4482 18.9947 22.6832 18.6681C23.3569 18.5533 23.9796 18.2359 24.4682 17.7581C24.7948 17.4313 25.0388 17.0314 25.1799 16.5914C25.5971 15.3111 25.802 13.9712 25.7865 12.6247C25.8332 11.9714 25.8332 8.02807 25.8332 7.32807ZM10.3632 13.3247V6.10307L17.2699 9.73141C15.3332 10.8047 12.7782 12.0181 10.3632 13.3247Z" fill="white"/>
</svg>
