<?xml version="1.0" standalone="no"?>
<!DOCTYPE svg PUBLIC "-//W3C//DTD SVG 20010904//EN"
 "http://www.w3.org/TR/2001/REC-SVG-20010904/DTD/svg10.dtd">
<svg version="1.0" xmlns="http://www.w3.org/2000/svg"
 width="992.000000pt" height="992.000000pt" viewBox="0 0 992.000000 992.000000"
 preserveAspectRatio="xMidYMid meet">
<metadata>
Created by potrace 1.14, written by Peter Selinger 2001-2017
</metadata>
<g transform="translate(0.000000,992.000000) scale(0.100000,-0.100000)"
fill="#000000" stroke="none">
<path d="M2181 8109 c-45 -27 -84 -49 -86 -49 -2 0 -32 -17 -66 -38 -35 -22
-84 -50 -109 -64 -25 -14 -71 -40 -103 -59 -32 -19 -70 -41 -85 -49 -91 -50
-168 -95 -172 -100 -3 -3 -26 -17 -52 -30 -26 -14 -124 -70 -219 -125 -195
-114 -191 -112 -319 -184 -52 -30 -107 -63 -122 -73 -16 -11 -28 -16 -28 -11
0 4 -4 3 -8 -3 -4 -6 -56 -39 -117 -73 -60 -34 -117 -66 -125 -72 -39 -24
-243 -139 -248 -139 -3 0 -13 -6 -21 -14 -9 -7 -41 -27 -71 -43 -30 -17 -90
-51 -133 -76 -43 -26 -83 -47 -88 -47 -5 0 -9 -426 -9 -1065 0 -586 2 -1065 5
-1065 3 0 22 10 43 23 20 12 51 29 67 37 17 8 35 22 42 30 7 8 13 11 13 5 0
-7 3 -7 8 0 4 6 23 18 42 29 86 46 126 70 143 84 9 8 17 12 17 8 0 -4 12 1 28
12 46 32 362 212 372 212 6 0 10 4 10 9 0 5 12 14 28 20 15 7 36 17 47 24 61
37 147 87 150 87 3 0 28 15 57 33 29 19 60 37 68 41 8 4 24 12 35 19 11 7 51
30 90 52 38 22 77 45 87 50 9 6 52 30 95 55 43 24 86 49 95 55 9 5 29 17 45
26 74 41 512 295 545 316 21 12 40 23 44 23 3 0 18 8 32 19 52 36 65 35 147
-14 42 -25 79 -45 81 -45 3 0 28 -15 57 -33 29 -18 115 -68 192 -112 77 -44
142 -82 145 -85 6 -6 83 -48 117 -64 13 -6 23 -14 23 -18 0 -5 4 -8 10 -8 8 0
105 -53 180 -99 81 -50 263 -151 271 -151 5 0 9 -4 9 -10 0 -5 4 -10 9 -10 5
0 50 -25 100 -55 51 -30 93 -55 96 -55 2 0 38 -20 79 -45 42 -25 81 -45 86
-45 6 0 10 -4 10 -10 0 -5 6 -10 14 -10 7 0 19 -7 26 -15 7 -8 16 -12 21 -9 5
3 9 0 9 -5 0 -6 5 -11 10 -11 6 0 27 -11 48 -23 20 -13 57 -35 82 -49 61 -34
377 -216 420 -242 19 -12 47 -27 61 -33 l26 -11 0 1059 0 1060 -66 38 c-36 21
-82 48 -101 59 -19 11 -64 36 -100 57 -36 21 -85 49 -110 63 -25 13 -52 31
-61 38 -8 8 -19 14 -23 14 -5 0 -34 15 -65 34 -31 19 -72 43 -91 54 -19 10
-91 51 -159 91 -68 39 -127 71 -132 71 -5 0 -9 5 -9 10 0 6 -4 10 -8 10 -5 0
-74 38 -153 85 -79 46 -161 92 -181 101 -21 9 -38 20 -38 25 0 5 -4 9 -10 9
-5 0 -47 23 -94 50 -47 28 -88 50 -92 50 -4 0 -15 6 -23 14 -9 7 -36 25 -61
38 -25 14 -72 41 -105 60 -33 20 -80 47 -105 60 -25 14 -101 58 -170 98 -68
40 -138 81 -155 90 -16 9 -52 30 -80 47 -27 16 -57 32 -65 35 -9 3 -51 -15
-99 -43z"/>
<path d="M7345 8150 c-4 -6 -17 -15 -28 -21 -12 -5 -29 -13 -37 -19 -13 -9
-67 -40 -185 -107 -22 -13 -51 -29 -65 -36 -14 -6 -27 -14 -30 -17 -3 -4 -32
-22 -65 -41 -33 -18 -73 -42 -90 -51 -16 -10 -41 -24 -55 -30 -14 -7 -27 -15
-30 -18 -3 -3 -14 -10 -25 -16 -95 -50 -522 -300 -527 -309 -4 -5 -8 -6 -8 -2
0 4 -17 -4 -37 -18 -21 -14 -43 -25 -50 -25 -7 0 -13 -4 -13 -9 0 -5 -8 -11
-17 -15 -10 -3 -32 -13 -48 -23 -17 -10 -53 -31 -80 -48 -28 -16 -66 -39 -86
-50 -33 -19 -295 -170 -357 -206 -15 -9 -47 -27 -72 -41 -25 -14 -61 -35 -80
-47 -19 -11 -42 -24 -50 -28 -8 -3 -37 -20 -65 -37 -27 -18 -71 -43 -97 -56
-41 -21 -48 -30 -49 -55 -2 -106 -3 -2095 -1 -2095 6 0 87 43 92 49 3 4 16 12
30 18 14 7 48 26 75 43 28 16 56 33 64 37 8 3 91 51 185 106 94 55 191 111
216 125 92 52 106 60 158 91 29 17 57 31 62 31 6 0 10 5 10 10 0 6 4 10 8 10
8 0 205 110 228 127 5 4 23 15 40 24 16 8 133 75 259 149 269 155 272 157 350
200 33 18 84 48 113 66 29 19 54 34 56 34 2 0 52 29 112 64 191 113 212 122
237 106 12 -7 128 -74 257 -148 129 -75 249 -143 265 -153 17 -10 53 -31 80
-47 28 -16 68 -39 90 -52 22 -12 60 -34 85 -48 25 -14 56 -32 70 -42 14 -9 61
-36 105 -60 44 -24 82 -46 85 -49 3 -4 30 -19 60 -35 30 -16 58 -34 62 -40 4
-6 8 -7 8 -2 0 5 6 4 13 -2 10 -9 226 -136 352 -207 22 -12 78 -45 125 -72 47
-27 92 -52 100 -56 8 -4 24 -13 35 -20 11 -7 51 -30 88 -52 38 -22 81 -47 95
-56 15 -9 47 -27 72 -41 79 -44 114 -65 150 -86 19 -12 37 -22 40 -22 7 0 6
2117 0 2122 -12 10 -115 70 -134 79 -12 5 -34 18 -51 29 -16 10 -41 25 -55 33
-14 7 -43 24 -65 37 -22 12 -60 34 -85 48 -25 14 -78 45 -118 69 -41 24 -76
43 -80 43 -3 0 -13 6 -21 14 -15 12 -72 45 -161 92 -19 11 -37 21 -40 24 -8 8
-42 28 -90 52 -25 13 -47 26 -50 29 -3 3 -63 39 -135 80 -71 41 -138 79 -147
84 -9 6 -29 17 -45 26 -61 33 -440 253 -475 275 -21 13 -40 24 -43 24 -2 0
-29 16 -59 35 -30 19 -57 35 -59 35 -5 0 -298 169 -312 180 -20 15 -53 21 -60
10z"/>
<path d="M2550 5170 c-1 -11 -1 -76 -1 -145 0 -69 0 -538 1 -1043 l0 -918 53
-27 c28 -16 66 -36 82 -46 17 -10 48 -28 70 -41 22 -12 60 -34 85 -49 25 -14
57 -33 71 -41 15 -8 108 -62 208 -120 100 -58 199 -115 221 -127 22 -12 78
-45 125 -73 47 -27 88 -50 92 -50 4 0 14 -6 22 -14 9 -7 48 -31 86 -51 39 -21
87 -49 107 -62 21 -13 42 -23 48 -23 5 0 10 -4 10 -10 0 -5 4 -10 10 -10 5 0
44 -20 86 -45 41 -25 80 -45 85 -45 5 0 9 -4 9 -10 0 -5 4 -10 9 -10 5 0 49
-23 98 -51 48 -29 108 -63 133 -77 25 -14 57 -33 72 -43 14 -11 33 -19 41 -19
9 0 17 -4 19 -8 4 -10 266 -162 279 -162 5 0 9 -4 9 -9 0 -5 17 -16 38 -25 20
-9 51 -26 68 -37 31 -19 33 -19 65 -2 19 10 36 21 39 24 3 3 12 9 20 13 8 4
24 12 35 19 11 7 47 27 80 46 33 19 63 39 67 45 4 6 8 8 8 4 0 -4 33 13 74 37
40 25 79 45 85 45 6 0 11 3 11 8 0 4 31 23 68 42 37 19 69 38 72 41 3 3 30 19
60 36 30 16 74 42 97 56 24 15 45 27 47 27 2 0 50 27 105 60 56 33 104 60 108
60 3 0 14 6 22 14 9 7 41 27 71 43 30 17 128 73 217 124 90 52 175 101 190
109 16 8 30 18 31 23 2 4 8 7 13 7 4 0 43 20 85 45 41 25 77 45 79 45 2 0 32
18 66 40 35 22 74 44 87 50 12 5 47 25 77 45 30 19 55 32 55 29 0 -3 15 5 33
18 31 22 67 44 117 70 14 7 45 25 70 41 l45 28 1 1059 c0 583 -1 1060 -2 1060
-9 0 -241 -136 -246 -144 -4 -6 -8 -7 -8 -3 0 4 -17 -4 -37 -18 -21 -14 -41
-25 -46 -25 -4 0 -13 -5 -20 -11 -7 -6 -38 -25 -69 -42 -32 -18 -205 -117
-385 -221 -181 -105 -337 -195 -348 -200 -11 -6 -22 -13 -25 -16 -3 -3 -16
-11 -29 -18 -13 -8 -40 -23 -59 -34 -20 -11 -88 -50 -151 -86 -64 -37 -124
-71 -133 -77 -104 -60 -649 -375 -674 -389 -28 -16 -37 -17 -56 -8 -42 22
-121 67 -243 139 -66 38 -124 72 -130 74 -5 2 -36 20 -68 39 -99 59 -110 66
-157 92 -56 32 -461 265 -595 343 -147 85 -214 124 -265 153 -25 13 -49 28
-55 32 -5 4 -31 19 -58 34 -26 14 -117 66 -201 116 -85 49 -159 90 -165 90 -6
0 -11 5 -11 10 0 6 -4 10 -9 10 -7 0 -62 30 -111 60 -38 24 -172 100 -176 100
-2 0 -4 -9 -4 -20z"/>
</g>
</svg>
